<svg viewBox="0 0 680 450" xmlns="http://www.w3.org/2000/svg">
<style>
  text{font-family:'Inter',-apple-system,BlinkMacSystemFont,sans-serif}
  .th{font-size:13px;font-weight:500;fill:#e0e0e0}
  .ts{font-size:11px;fill:#9ca3af}
  .arr{stroke:#6b7280;stroke-width:1}
  .n-purple rect{fill:#26215C;stroke:#534AB7;stroke-width:.5}
  .n-purple .th{fill:#CCFFCC}.n-purple .ts{fill:#AFA9EC}
  .n-blue rect{fill:#0C3A6E;stroke:#378ADD;stroke-width:.5}
  .n-blue .th{fill:#B5D4F4}.n-blue .ts{fill:#85B7EB}
  .n-teal rect{fill:#053B30;stroke:#1D9E75;stroke-width:.5}
  .n-teal .th{fill:#9FE1CB}.n-teal .ts{fill:#5DCAA5}
  .n-amber rect{fill:#3A2800;stroke:#BA7517;stroke-width:.5}
  .n-amber .th{fill:#FAC775}.n-amber .ts{fill:#EF9F27}
  .n-coral rect{fill:#3E1508;stroke:#D85A30;stroke-width:.5}
  .n-coral .th{fill:#F5C4B3}.n-coral .ts{fill:#F0997B}
  .n-pink rect{fill:#3E1028;stroke:#D4537E;stroke-width:.5}
  .n-pink .th{fill:#F4C0D1}.n-pink .ts{fill:#ED93B1}
  .n-gray rect{fill:#1e1e1c;stroke:#5F5E5A;stroke-width:.5}
  .n-gray .th{fill:#D3D1C7}.n-gray .ts{fill:#B4B2A9}
  .n-red rect{fill:#3A0F0F;stroke:#A32D2D;stroke-width:.5}
  .n-red .th{fill:#F7C1C1}.n-red .ts{fill:#F09595}
</style>
<rect width="100%" height="100%" fill="transparent" rx="6"/>
<defs><marker id="arr" viewBox="0 0 10 10" refX="8" refY="5" markerWidth="6" markerHeight="6" orient="auto-start-reverse"><path d="M2 1L8 5L2 9" fill="none" stroke="context-stroke" stroke-width="1.5" stroke-linecap="round" stroke-linejoin="round"/></marker></defs>

  <g class="n-coral"><rect x="40" y="20" width="180" height="40" rx="7"/><text class="ts" x="130" y="40" text-anchor="middle" dominant-baseline="central">Context compaction</text></g>
  <g class="n-coral"><rect x="250" y="20" width="180" height="40" rx="7"/><text class="ts" x="340" y="40" text-anchor="middle" dominant-baseline="central">Server restart</text></g>
  <g class="n-coral"><rect x="460" y="20" width="180" height="40" rx="7"/><text class="ts" x="550" y="40" text-anchor="middle" dominant-baseline="central">Session handoff</text></g>
  <line x1="130" y1="60" x2="130" y2="90" class="arr" marker-end="url(#arr)"/><line x1="340" y1="60" x2="340" y2="90" class="arr" marker-end="url(#arr)"/><line x1="550" y1="60" x2="550" y2="90" class="arr" marker-end="url(#arr)"/>
  <g class="n-amber"><rect x="40" y="90" width="600" height="50" rx="10"/><text class="th" x="340" y="108" text-anchor="middle" dominant-baseline="central">Graph lives outside the context window</text><text class="ts" x="340" y="126" text-anchor="middle" dominant-baseline="central">MCP server = external persistent process, not a prompt</text></g>
  <line x1="340" y1="140" x2="340" y2="164" class="arr" marker-end="url(#arr)"/>
  <g class="n-gray"><rect x="140" y="164" width="400" height="50" rx="8"/><text class="th" x="340" y="182" text-anchor="middle" dominant-baseline="central">Atomic write-rename persistence</text><text class="ts" x="340" y="200" text-anchor="middle" dominant-baseline="central">Serialize → tmp file → rename → snapshot rotation</text></g>
  <line x1="340" y1="214" x2="340" y2="238" class="arr" marker-end="url(#arr)"/>
  <g class="n-blue"><rect x="100" y="238" width="480" height="40" rx="7"/><text class="th" x="340" y="258" text-anchor="middle" dominant-baseline="central">get_state() reconstructs complete briefing</text></g>
  <line x1="340" y1="278" x2="340" y2="302" class="arr" marker-end="url(#arr)"/>
  <g class="n-purple"><rect x="40" y="302" width="600" height="80" rx="12"/><text class="th" x="340" y="322" text-anchor="middle" dominant-baseline="central">Reconstructed engagement state</text></g>
  <g class="n-purple"><rect x="62" y="338" width="100" height="30" rx="5"/><text class="ts" x="112" y="353" text-anchor="middle" dominant-baseline="central">Scope + config</text></g>
  <g class="n-purple"><rect x="174" y="338" width="100" height="30" rx="5"/><text class="ts" x="224" y="353" text-anchor="middle" dominant-baseline="central">All discoveries</text></g>
  <g class="n-purple"><rect x="286" y="338" width="100" height="30" rx="5"/><text class="ts" x="336" y="353" text-anchor="middle" dominant-baseline="central">Frontier items</text></g>
  <g class="n-purple"><rect x="398" y="338" width="100" height="30" rx="5"/><text class="ts" x="448" y="353" text-anchor="middle" dominant-baseline="central">Active agents</text></g>
  <g class="n-purple"><rect x="510" y="338" width="110" height="30" rx="5"/><text class="ts" x="565" y="353" text-anchor="middle" dominant-baseline="central">Recent activity</text></g>
  <text class="ts" x="340" y="416" text-anchor="middle">Also: cold_node_count, cold_nodes_by_subnet, community_ids, objective progress</text>
</svg>
