<svg viewBox="0 0 680 460" xmlns="http://www.w3.org/2000/svg">
<style>
  text{font-family:'Inter',-apple-system,BlinkMacSystemFont,sans-serif}
  .th{font-size:13px;font-weight:500;fill:#1e293b}
  .ts{font-size:11px;fill:#475569}
  .arr{stroke:#94a3b8;stroke-width:1}
  .n-purple rect{fill:#ede9fe;stroke:#8b5cf6;stroke-width:.5}
  .n-purple .th{fill:#5b21b6}.n-purple .ts{fill:#7c3aed}
  .n-blue rect{fill:#dbeafe;stroke:#3b82f6;stroke-width:.5}
  .n-blue .th{fill:#1e40af}.n-blue .ts{fill:#2563eb}
  .n-teal rect{fill:#d1fae5;stroke:#10b981;stroke-width:.5}
  .n-teal .th{fill:#065f46}.n-teal .ts{fill:#059669}
  .n-amber rect{fill:#fef3c7;stroke:#f59e0b;stroke-width:.5}
  .n-amber .th{fill:#92400e}.n-amber .ts{fill:#b45309}
  .n-coral rect{fill:#fff7ed;stroke:#f97316;stroke-width:.5}
  .n-coral .th{fill:#9a3412}.n-coral .ts{fill:#ea580c}
  .n-pink rect{fill:#fce7f3;stroke:#ec4899;stroke-width:.5}
  .n-pink .th{fill:#9d174d}.n-pink .ts{fill:#db2777}
  .n-gray rect{fill:#f1f5f9;stroke:#94a3b8;stroke-width:.5}
  .n-gray .th{fill:#334155}.n-gray .ts{fill:#475569}
  .n-red rect{fill:#fee2e2;stroke:#ef4444;stroke-width:.5}
  .n-red .th{fill:#991b1b}.n-red .ts{fill:#dc2626}
</style>
<rect width="100%" height="100%" fill="#ffffff" rx="6"/>
<defs><marker id="arr" viewBox="0 0 10 10" refX="8" refY="5" markerWidth="6" markerHeight="6" orient="auto-start-reverse"><path d="M2 1L8 5L2 9" fill="none" stroke="context-stroke" stroke-width="1.5" stroke-linecap="round" stroke-linejoin="round"/></marker></defs>

  <g class="n-amber"><rect x="200" y="10" width="280" height="36" rx="7"/><text class="th" x="340" y="28" text-anchor="middle" dominant-baseline="central">GraphEngine (thin facade)</text></g>
  <line x1="340" y1="46" x2="340" y2="64" class="arr" marker-end="url(#arr)"/>
  <g class="n-gray"><rect x="100" y="64" width="480" height="44" rx="8"/><text class="th" x="340" y="80" text-anchor="middle" dominant-baseline="central">EngineContext (shared mutable state)</text><text class="ts" x="340" y="96" text-anchor="middle" dominant-baseline="central">graph, config, rules, agents, activity log, callbacks, coldStore</text></g>
  <line x1="130" y1="108" x2="130" y2="126" class="arr" marker-end="url(#arr)"/><line x1="270" y1="108" x2="270" y2="126" class="arr" marker-end="url(#arr)"/><line x1="410" y1="108" x2="410" y2="126" class="arr" marker-end="url(#arr)"/><line x1="540" y1="108" x2="540" y2="126" class="arr" marker-end="url(#arr)"/>
  <g class="n-teal"><rect x="68" y="126" width="130" height="44" rx="6"/><text class="th" x="133" y="142" text-anchor="middle" dominant-baseline="central">Inference engine</text><text class="ts" x="133" y="158" text-anchor="middle" dominant-baseline="central">53 rules, selectors</text></g>
  <g class="n-blue"><rect x="210" y="126" width="120" height="44" rx="6"/><text class="th" x="270" y="142" text-anchor="middle" dominant-baseline="central">Frontier</text><text class="ts" x="270" y="158" text-anchor="middle" dominant-baseline="central">5 item types</text></g>
  <g class="n-purple"><rect x="342" y="126" width="130" height="44" rx="6"/><text class="th" x="407" y="142" text-anchor="middle" dominant-baseline="central">Path analyzer</text><text class="ts" x="407" y="158" text-anchor="middle" dominant-baseline="central">BFS, objectives</text></g>
  <g class="n-coral"><rect x="484" y="126" width="140" height="44" rx="6"/><text class="th" x="554" y="142" text-anchor="middle" dominant-baseline="central">State persistence</text><text class="ts" x="554" y="158" text-anchor="middle" dominant-baseline="central">Atomic write</text></g>
  <text class="th" x="340" y="196" text-anchor="middle" dominant-baseline="central">Supporting services</text>
  <g class="n-gray"><rect x="44" y="210" width="120" height="36" rx="5"/><text class="ts" x="104" y="228" text-anchor="middle" dominant-baseline="central">Identity resolution</text></g>
  <g class="n-gray"><rect x="176" y="210" width="120" height="36" rx="5"/><text class="ts" x="236" y="228" text-anchor="middle" dominant-baseline="central">Identity reconcile</text></g>
  <g class="n-gray"><rect x="308" y="210" width="100" height="36" rx="5"/><text class="ts" x="358" y="228" text-anchor="middle" dominant-baseline="central">Cold store</text></g>
  <g class="n-gray"><rect x="420" y="210" width="100" height="36" rx="5"/><text class="ts" x="470" y="228" text-anchor="middle" dominant-baseline="central">Graph health</text></g>
  <g class="n-gray"><rect x="532" y="210" width="100" height="36" rx="5"/><text class="ts" x="582" y="228" text-anchor="middle" dominant-baseline="central">Graph schema</text></g>
  <text class="th" x="340" y="272" text-anchor="middle" dominant-baseline="central">Operational services</text>
  <g class="n-pink"><rect x="44" y="286" width="100" height="36" rx="5"/><text class="ts" x="94" y="304" text-anchor="middle" dominant-baseline="central">Session mgr</text></g>
  <g class="n-pink"><rect x="156" y="286" width="100" height="36" rx="5"/><text class="ts" x="206" y="304" text-anchor="middle" dominant-baseline="central">Agent mgr</text></g>
  <g class="n-pink"><rect x="268" y="286" width="100" height="36" rx="5"/><text class="ts" x="318" y="304" text-anchor="middle" dominant-baseline="central">Output parsers</text></g>
  <g class="n-pink"><rect x="380" y="286" width="100" height="36" rx="5"/><text class="ts" x="430" y="304" text-anchor="middle" dominant-baseline="central">Skill index</text></g>
  <g class="n-pink"><rect x="492" y="286" width="100" height="36" rx="5"/><text class="ts" x="542" y="304" text-anchor="middle" dominant-baseline="central">Prompt gen</text></g>
  <g class="n-pink"><rect x="44" y="334" width="100" height="36" rx="5"/><text class="ts" x="94" y="352" text-anchor="middle" dominant-baseline="central">Report gen</text></g>
  <g class="n-pink"><rect x="156" y="334" width="100" height="36" rx="5"/><text class="ts" x="206" y="352" text-anchor="middle" dominant-baseline="central">Retrospective</text></g>
  <g class="n-pink"><rect x="268" y="334" width="100" height="36" rx="5"/><text class="ts" x="318" y="352" text-anchor="middle" dominant-baseline="central">Community det.</text></g>
  <g class="n-pink"><rect x="380" y="334" width="100" height="36" rx="5"/><text class="ts" x="430" y="352" text-anchor="middle" dominant-baseline="central">Credential utils</text></g>
  <g class="n-pink"><rect x="492" y="334" width="100" height="36" rx="5"/><text class="ts" x="542" y="352" text-anchor="middle" dominant-baseline="central">Process tracker</text></g>
  <text class="th" x="340" y="396" text-anchor="middle" dominant-baseline="central">Transport + UI</text>
  <g class="n-blue"><rect x="68" y="410" width="160" height="36" rx="6"/><text class="ts" x="148" y="428" text-anchor="middle" dominant-baseline="central">stdio (MCP default)</text></g>
  <g class="n-blue"><rect x="248" y="410" width="180" height="36" rx="6"/><text class="ts" x="338" y="428" text-anchor="middle" dominant-baseline="central">HTTP/SSE (streamable)</text></g>
  <g class="n-blue"><rect x="448" y="410" width="190" height="36" rx="6"/><text class="ts" x="543" y="428" text-anchor="middle" dominant-baseline="central">Dashboard (WS + sigma.js)</text></g>
</svg>
