<svg viewBox="0 0 680 480" xmlns="http://www.w3.org/2000/svg">
<style>
  text{font-family:'Inter',-apple-system,BlinkMacSystemFont,sans-serif}
  .th{font-size:13px;font-weight:500;fill:#e0e0e0}
  .ts{font-size:11px;fill:#9ca3af}
  .arr{stroke:#6b7280;stroke-width:1}
  .n-purple rect{fill:#26215C;stroke:#534AB7;stroke-width:.5}
  .n-purple .th{fill:#CCFFCC}.n-purple .ts{fill:#AFA9EC}
  .n-blue rect{fill:#0C3A6E;stroke:#378ADD;stroke-width:.5}
  .n-blue .th{fill:#B5D4F4}.n-blue .ts{fill:#85B7EB}
  .n-teal rect{fill:#053B30;stroke:#1D9E75;stroke-width:.5}
  .n-teal .th{fill:#9FE1CB}.n-teal .ts{fill:#5DCAA5}
  .n-amber rect{fill:#3A2800;stroke:#BA7517;stroke-width:.5}
  .n-amber .th{fill:#FAC775}.n-amber .ts{fill:#EF9F27}
  .n-coral rect{fill:#3E1508;stroke:#D85A30;stroke-width:.5}
  .n-coral .th{fill:#F5C4B3}.n-coral .ts{fill:#F0997B}
  .n-pink rect{fill:#3E1028;stroke:#D4537E;stroke-width:.5}
  .n-pink .th{fill:#F4C0D1}.n-pink .ts{fill:#ED93B1}
  .n-gray rect{fill:#1e1e1c;stroke:#5F5E5A;stroke-width:.5}
  .n-gray .th{fill:#D3D1C7}.n-gray .ts{fill:#B4B2A9}
  .n-red rect{fill:#3A0F0F;stroke:#A32D2D;stroke-width:.5}
  .n-red .th{fill:#F7C1C1}.n-red .ts{fill:#F09595}
</style>
<rect width="100%" height="100%" fill="transparent" rx="6"/>
<defs><marker id="arr" viewBox="0 0 10 10" refX="8" refY="5" markerWidth="6" markerHeight="6" orient="auto-start-reverse"><path d="M2 1L8 5L2 9" fill="none" stroke="context-stroke" stroke-width="1.5" stroke-linecap="round" stroke-linejoin="round"/></marker></defs>

  <g class="n-purple"><rect x="200" y="20" width="280" height="50" rx="8"/><text class="th" x="340" y="40" text-anchor="middle" dominant-baseline="central">LLM operator (Claude / Opus)</text><text class="ts" x="340" y="56" text-anchor="middle" dominant-baseline="central">Primary session + sub-agents</text></g>
  <line x1="290" y1="70" x2="290" y2="110" class="arr" marker-end="url(#arr)"/><line x1="390" y1="110" x2="390" y2="70" class="arr" marker-end="url(#arr)"/>
  <text class="ts" x="252" y="94" text-anchor="end">stdio / HTTP+SSE</text>
  <g class="n-teal"><rect x="60" y="110" width="560" height="290" rx="14"/><text class="th" x="340" y="134" text-anchor="middle" dominant-baseline="central">MCP orchestrator server</text></g>
  <g class="n-blue"><rect x="90" y="150" width="500" height="36" rx="7"/><text class="th" x="340" y="168" text-anchor="middle" dominant-baseline="central">42 MCP tools (Zod-validated)</text></g>
  <g class="n-amber"><rect x="90" y="200" width="150" height="50" rx="7"/><text class="th" x="165" y="218" text-anchor="middle" dominant-baseline="central">Graph engine</text><text class="ts" x="165" y="234" text-anchor="middle" dominant-baseline="central">graphology</text></g>
  <g class="n-coral"><rect x="262" y="200" width="150" height="50" rx="7"/><text class="th" x="337" y="218" text-anchor="middle" dominant-baseline="central">Inference engine</text><text class="ts" x="337" y="234" text-anchor="middle" dominant-baseline="central">53 rules</text></g>
  <g class="n-pink"><rect x="434" y="200" width="150" height="50" rx="7"/><text class="th" x="509" y="218" text-anchor="middle" dominant-baseline="central">Frontier computer</text><text class="ts" x="509" y="234" text-anchor="middle" dominant-baseline="central">Next actions</text></g>
  <line x1="240" y1="225" x2="260" y2="225" class="arr" marker-end="url(#arr)"/><line x1="412" y1="225" x2="432" y2="225" class="arr" marker-end="url(#arr)"/>
  <g class="n-gray"><rect x="90" y="266" width="500" height="36" rx="7"/><text class="th" x="340" y="284" text-anchor="middle" dominant-baseline="central">EngineContext (shared mutable state)</text></g>
  <g class="n-teal"><rect x="90" y="318" width="120" height="36" rx="6"/><text class="ts" x="150" y="336" text-anchor="middle" dominant-baseline="central">Path analyzer</text></g>
  <g class="n-teal"><rect x="224" y="318" width="120" height="36" rx="6"/><text class="ts" x="284" y="336" text-anchor="middle" dominant-baseline="central">Identity resolution</text></g>
  <g class="n-teal"><rect x="358" y="318" width="120" height="36" rx="6"/><text class="ts" x="418" y="336" text-anchor="middle" dominant-baseline="central">State persistence</text></g>
  <g class="n-teal"><rect x="492" y="318" width="100" height="36" rx="6"/><text class="ts" x="542" y="336" text-anchor="middle" dominant-baseline="central">21 parsers</text></g>
  <g class="n-gray"><rect x="350" y="372" width="90" height="26" rx="6"/><text class="ts" x="395" y="385" text-anchor="middle" dominant-baseline="central">state.json</text></g>
  <line x1="418" y1="354" x2="395" y2="372" class="arr" marker-end="url(#arr)"/>
  <g class="n-blue"><rect x="200" y="430" width="280" height="40" rx="8"/><text class="th" x="340" y="450" text-anchor="middle" dominant-baseline="central">Dashboard (sigma.js WebGL :8384)</text></g>
  <line x1="340" y1="400" x2="340" y2="430" class="arr" marker-end="url(#arr)"/>
  <text class="ts" x="355" y="418" text-anchor="start">WebSocket deltas</text>
</svg>
