<svg viewBox="0 0 680 450" xmlns="http://www.w3.org/2000/svg">
<style>
  text{font-family:'Inter',-apple-system,BlinkMacSystemFont,sans-serif}
  .th{font-size:13px;font-weight:500;fill:#1e293b}
  .ts{font-size:11px;fill:#475569}
  .arr{stroke:#94a3b8;stroke-width:1}
  .n-purple rect{fill:#ede9fe;stroke:#8b5cf6;stroke-width:.5}
  .n-purple .th{fill:#5b21b6}.n-purple .ts{fill:#7c3aed}
  .n-blue rect{fill:#dbeafe;stroke:#3b82f6;stroke-width:.5}
  .n-blue .th{fill:#1e40af}.n-blue .ts{fill:#2563eb}
  .n-teal rect{fill:#d1fae5;stroke:#10b981;stroke-width:.5}
  .n-teal .th{fill:#065f46}.n-teal .ts{fill:#059669}
  .n-amber rect{fill:#fef3c7;stroke:#f59e0b;stroke-width:.5}
  .n-amber .th{fill:#92400e}.n-amber .ts{fill:#b45309}
  .n-coral rect{fill:#fff7ed;stroke:#f97316;stroke-width:.5}
  .n-coral .th{fill:#9a3412}.n-coral .ts{fill:#ea580c}
  .n-pink rect{fill:#fce7f3;stroke:#ec4899;stroke-width:.5}
  .n-pink .th{fill:#9d174d}.n-pink .ts{fill:#db2777}
  .n-gray rect{fill:#f1f5f9;stroke:#94a3b8;stroke-width:.5}
  .n-gray .th{fill:#334155}.n-gray .ts{fill:#475569}
  .n-red rect{fill:#fee2e2;stroke:#ef4444;stroke-width:.5}
  .n-red .th{fill:#991b1b}.n-red .ts{fill:#dc2626}
</style>
<rect width="100%" height="100%" fill="#ffffff" rx="6"/>
<defs><marker id="arr" viewBox="0 0 10 10" refX="8" refY="5" markerWidth="6" markerHeight="6" orient="auto-start-reverse"><path d="M2 1L8 5L2 9" fill="none" stroke="context-stroke" stroke-width="1.5" stroke-linecap="round" stroke-linejoin="round"/></marker></defs>

  <g class="n-coral"><rect x="40" y="20" width="180" height="40" rx="7"/><text class="ts" x="130" y="40" text-anchor="middle" dominant-baseline="central">Context compaction</text></g>
  <g class="n-coral"><rect x="250" y="20" width="180" height="40" rx="7"/><text class="ts" x="340" y="40" text-anchor="middle" dominant-baseline="central">Server restart</text></g>
  <g class="n-coral"><rect x="460" y="20" width="180" height="40" rx="7"/><text class="ts" x="550" y="40" text-anchor="middle" dominant-baseline="central">Session handoff</text></g>
  <line x1="130" y1="60" x2="130" y2="90" class="arr" marker-end="url(#arr)"/><line x1="340" y1="60" x2="340" y2="90" class="arr" marker-end="url(#arr)"/><line x1="550" y1="60" x2="550" y2="90" class="arr" marker-end="url(#arr)"/>
  <g class="n-amber"><rect x="40" y="90" width="600" height="50" rx="10"/><text class="th" x="340" y="108" text-anchor="middle" dominant-baseline="central">Graph lives outside the context window</text><text class="ts" x="340" y="126" text-anchor="middle" dominant-baseline="central">MCP server = external persistent process, not a prompt</text></g>
  <line x1="340" y1="140" x2="340" y2="164" class="arr" marker-end="url(#arr)"/>
  <g class="n-gray"><rect x="140" y="164" width="400" height="50" rx="8"/><text class="th" x="340" y="182" text-anchor="middle" dominant-baseline="central">Atomic write-rename persistence</text><text class="ts" x="340" y="200" text-anchor="middle" dominant-baseline="central">Serialize → tmp file → rename → snapshot rotation</text></g>
  <line x1="340" y1="214" x2="340" y2="238" class="arr" marker-end="url(#arr)"/>
  <g class="n-blue"><rect x="100" y="238" width="480" height="40" rx="7"/><text class="th" x="340" y="258" text-anchor="middle" dominant-baseline="central">get_state() reconstructs complete briefing</text></g>
  <line x1="340" y1="278" x2="340" y2="302" class="arr" marker-end="url(#arr)"/>
  <g class="n-purple"><rect x="40" y="302" width="600" height="80" rx="12"/><text class="th" x="340" y="322" text-anchor="middle" dominant-baseline="central">Reconstructed engagement state</text></g>
  <g class="n-purple"><rect x="62" y="338" width="100" height="30" rx="5"/><text class="ts" x="112" y="353" text-anchor="middle" dominant-baseline="central">Scope + config</text></g>
  <g class="n-purple"><rect x="174" y="338" width="100" height="30" rx="5"/><text class="ts" x="224" y="353" text-anchor="middle" dominant-baseline="central">All discoveries</text></g>
  <g class="n-purple"><rect x="286" y="338" width="100" height="30" rx="5"/><text class="ts" x="336" y="353" text-anchor="middle" dominant-baseline="central">Frontier items</text></g>
  <g class="n-purple"><rect x="398" y="338" width="100" height="30" rx="5"/><text class="ts" x="448" y="353" text-anchor="middle" dominant-baseline="central">Active agents</text></g>
  <g class="n-purple"><rect x="510" y="338" width="110" height="30" rx="5"/><text class="ts" x="565" y="353" text-anchor="middle" dominant-baseline="central">Recent activity</text></g>
  <text class="ts" x="340" y="416" text-anchor="middle">Also: cold_node_count, cold_nodes_by_subnet, community_ids, objective progress</text>
</svg>
