<svg viewBox="0 0 680 380" xmlns="http://www.w3.org/2000/svg">
<style>
  text{font-family:'Inter',-apple-system,BlinkMacSystemFont,sans-serif}
  .th{font-size:13px;font-weight:500;fill:#e0e0e0}
  .ts{font-size:11px;fill:#9ca3af}
  .arr{stroke:#6b7280;stroke-width:1}
  .n-purple rect{fill:#26215C;stroke:#534AB7;stroke-width:.5}
  .n-purple .th{fill:#CCFFCC}.n-purple .ts{fill:#AFA9EC}
  .n-blue rect{fill:#0C3A6E;stroke:#378ADD;stroke-width:.5}
  .n-blue .th{fill:#B5D4F4}.n-blue .ts{fill:#85B7EB}
  .n-teal rect{fill:#053B30;stroke:#1D9E75;stroke-width:.5}
  .n-teal .th{fill:#9FE1CB}.n-teal .ts{fill:#5DCAA5}
  .n-amber rect{fill:#3A2800;stroke:#BA7517;stroke-width:.5}
  .n-amber .th{fill:#FAC775}.n-amber .ts{fill:#EF9F27}
  .n-coral rect{fill:#3E1508;stroke:#D85A30;stroke-width:.5}
  .n-coral .th{fill:#F5C4B3}.n-coral .ts{fill:#F0997B}
  .n-pink rect{fill:#3E1028;stroke:#D4537E;stroke-width:.5}
  .n-pink .th{fill:#F4C0D1}.n-pink .ts{fill:#ED93B1}
  .n-gray rect{fill:#1e1e1c;stroke:#5F5E5A;stroke-width:.5}
  .n-gray .th{fill:#D3D1C7}.n-gray .ts{fill:#B4B2A9}
  .n-red rect{fill:#3A0F0F;stroke:#A32D2D;stroke-width:.5}
  .n-red .th{fill:#F7C1C1}.n-red .ts{fill:#F09595}
</style>
<rect width="100%" height="100%" fill="transparent" rx="6"/>
<defs><marker id="arr" viewBox="0 0 10 10" refX="8" refY="5" markerWidth="6" markerHeight="6" orient="auto-start-reverse"><path d="M2 1L8 5L2 9" fill="none" stroke="context-stroke" stroke-width="1.5" stroke-linecap="round" stroke-linejoin="round"/></marker></defs>

  <g class="n-teal"><rect x="40" y="10" width="600" height="170" rx="12"/><text class="th" x="340" y="30" text-anchor="middle" dominant-baseline="central">MCP server process</text></g>
  <g class="n-amber"><rect x="80" y="44" width="200" height="38" rx="7"/><text class="th" x="180" y="63" text-anchor="middle" dominant-baseline="central">GraphEngine.persist()</text></g>
  <line x1="280" y1="63" x2="314" y2="63" class="arr" marker-end="url(#arr)"/>
  <g class="n-coral"><rect x="314" y="44" width="200" height="38" rx="7"/><text class="th" x="414" y="63" text-anchor="middle" dominant-baseline="central">onUpdate callback</text></g>
  <line x1="414" y1="82" x2="414" y2="102" class="arr" marker-end="url(#arr)"/>
  <g class="n-purple"><rect x="260" y="102" width="240" height="38" rx="7"/><text class="th" x="380" y="121" text-anchor="middle" dominant-baseline="central">Delta accumulator (debounced)</text></g>
  <line x1="280" y1="140" x2="220" y2="152" class="arr" marker-end="url(#arr)"/><line x1="480" y1="140" x2="500" y2="152" class="arr" marker-end="url(#arr)"/>
  <g class="n-blue"><rect x="80" y="152" width="220" height="26" rx="5"/><text class="ts" x="190" y="165" text-anchor="middle" dominant-baseline="central">New conn → full_state</text></g>
  <g class="n-blue"><rect x="400" y="152" width="220" height="26" rx="5"/><text class="ts" x="510" y="165" text-anchor="middle" dominant-baseline="central">Existing → graph_update delta</text></g>
  <line x1="340" y1="180" x2="340" y2="210" class="arr" marker-end="url(#arr)"/>
  <text class="ts" x="355" y="198" text-anchor="start">WebSocket + HTTP poll fallback</text>
  <g class="n-purple"><rect x="40" y="210" width="600" height="156" rx="12"/><text class="th" x="340" y="230" text-anchor="middle" dominant-baseline="central">Browser (:8384)</text></g>
  <g class="n-amber"><rect x="68" y="244" width="130" height="44" rx="6"/><text class="th" x="133" y="260" text-anchor="middle" dominant-baseline="central">graph.js</text><text class="ts" x="133" y="276" text-anchor="middle" dominant-baseline="central">sigma + FA2</text></g>
  <g class="n-teal"><rect x="214" y="244" width="130" height="44" rx="6"/><text class="th" x="279" y="260" text-anchor="middle" dominant-baseline="central">ui.js</text><text class="ts" x="279" y="276" text-anchor="middle" dominant-baseline="central">Sidebar + detail</text></g>
  <g class="n-blue"><rect x="360" y="244" width="120" height="44" rx="6"/><text class="th" x="420" y="260" text-anchor="middle" dominant-baseline="central">ws.js</text><text class="ts" x="420" y="276" text-anchor="middle" dominant-baseline="central">Reconnect</text></g>
  <g class="n-gray"><rect x="496" y="244" width="120" height="44" rx="6"/><text class="th" x="556" y="260" text-anchor="middle" dominant-baseline="central">node-display</text><text class="ts" x="556" y="276" text-anchor="middle" dominant-baseline="central">Labels + types</text></g>
  <g class="n-gray"><rect x="68" y="302" width="90" height="24" rx="5"/><text class="ts" x="113" y="314" text-anchor="middle" dominant-baseline="central">Drag+hover</text></g>
  <g class="n-gray"><rect x="170" y="302" width="100" height="24" rx="5"/><text class="ts" x="220" y="314" text-anchor="middle" dominant-baseline="central">Path highlight</text></g>
  <g class="n-gray"><rect x="282" y="302" width="100" height="24" rx="5"/><text class="ts" x="332" y="314" text-anchor="middle" dominant-baseline="central">Hull overlays</text></g>
  <g class="n-gray"><rect x="394" y="302" width="80" height="24" rx="5"/><text class="ts" x="434" y="314" text-anchor="middle" dominant-baseline="central">Minimap</text></g>
  <g class="n-gray"><rect x="486" y="302" width="100" height="24" rx="5"/><text class="ts" x="536" y="314" text-anchor="middle" dominant-baseline="central">SVG export</text></g>
  <g class="n-amber"><rect x="68" y="338" width="160" height="22" rx="5"/><text class="ts" x="148" y="349" text-anchor="middle" dominant-baseline="central">New nodes pulse 2s</text></g>
  <g class="n-amber"><rect x="242" y="338" width="180" height="22" rx="5"/><text class="ts" x="332" y="349" text-anchor="middle" dominant-baseline="central">Pin-and-resume on delta</text></g>
</svg>
