<svg viewBox="0 0 680 400" xmlns="http://www.w3.org/2000/svg">
<style>
  text{font-family:'Inter',-apple-system,BlinkMacSystemFont,sans-serif}
  .th{font-size:13px;font-weight:500;fill:#e0e0e0}
  .ts{font-size:11px;fill:#9ca3af}
  .arr{stroke:#6b7280;stroke-width:1}
  .n-purple rect{fill:#26215C;stroke:#534AB7;stroke-width:.5}
  .n-purple .th{fill:#CCFFCC}.n-purple .ts{fill:#AFA9EC}
  .n-blue rect{fill:#0C3A6E;stroke:#378ADD;stroke-width:.5}
  .n-blue .th{fill:#B5D4F4}.n-blue .ts{fill:#85B7EB}
  .n-teal rect{fill:#053B30;stroke:#1D9E75;stroke-width:.5}
  .n-teal .th{fill:#9FE1CB}.n-teal .ts{fill:#5DCAA5}
  .n-amber rect{fill:#3A2800;stroke:#BA7517;stroke-width:.5}
  .n-amber .th{fill:#FAC775}.n-amber .ts{fill:#EF9F27}
  .n-coral rect{fill:#3E1508;stroke:#D85A30;stroke-width:.5}
  .n-coral .th{fill:#F5C4B3}.n-coral .ts{fill:#F0997B}
  .n-pink rect{fill:#3E1028;stroke:#D4537E;stroke-width:.5}
  .n-pink .th{fill:#F4C0D1}.n-pink .ts{fill:#ED93B1}
  .n-gray rect{fill:#1e1e1c;stroke:#5F5E5A;stroke-width:.5}
  .n-gray .th{fill:#D3D1C7}.n-gray .ts{fill:#B4B2A9}
  .n-red rect{fill:#3A0F0F;stroke:#A32D2D;stroke-width:.5}
  .n-red .th{fill:#F7C1C1}.n-red .ts{fill:#F09595}
</style>
<rect width="100%" height="100%" fill="transparent" rx="6"/>
<defs><marker id="arr" viewBox="0 0 10 10" refX="8" refY="5" markerWidth="6" markerHeight="6" orient="auto-start-reverse"><path d="M2 1L8 5L2 9" fill="none" stroke="context-stroke" stroke-width="1.5" stroke-linecap="round" stroke-linejoin="round"/></marker></defs>

  <g class="n-blue"><rect x="40" y="40" width="280" height="280" rx="14"/><text class="th" x="180" y="64" text-anchor="middle" dominant-baseline="central">Deterministic layer</text><text class="ts" x="180" y="80" text-anchor="middle" dominant-baseline="central">Guardrail, not brain</text></g>
  <g class="n-blue"><rect x="70" y="98" width="220" height="30" rx="5"/><text class="ts" x="180" y="113" text-anchor="middle" dominant-baseline="central">Scope enforcement (CIDR/domain)</text></g>
  <g class="n-blue"><rect x="70" y="136" width="220" height="30" rx="5"/><text class="ts" x="180" y="151" text-anchor="middle" dominant-baseline="central">Deduplication (tested edges)</text></g>
  <g class="n-blue"><rect x="70" y="174" width="220" height="30" rx="5"/><text class="ts" x="180" y="189" text-anchor="middle" dominant-baseline="central">OPSEC vetoes (noise ceiling)</text></g>
  <g class="n-blue"><rect x="70" y="212" width="220" height="30" rx="5"/><text class="ts" x="180" y="227" text-anchor="middle" dominant-baseline="central">Inference rule execution</text></g>
  <g class="n-blue"><rect x="70" y="250" width="220" height="30" rx="5"/><text class="ts" x="180" y="265" text-anchor="middle" dominant-baseline="central">Frontier generation</text></g>
  <g class="n-blue"><rect x="70" y="288" width="220" height="30" rx="5"/><text class="ts" x="180" y="303" text-anchor="middle" dominant-baseline="central">Dead host pruning</text></g>
  <g class="n-purple"><rect x="360" y="40" width="280" height="280" rx="14"/><text class="th" x="500" y="64" text-anchor="middle" dominant-baseline="central">LLM layer</text><text class="ts" x="500" y="80" text-anchor="middle" dominant-baseline="central">Offensive reasoning</text></g>
  <g class="n-purple"><rect x="390" y="98" width="220" height="30" rx="5"/><text class="ts" x="500" y="113" text-anchor="middle" dominant-baseline="central">Attack chain spotting</text></g>
  <g class="n-purple"><rect x="390" y="136" width="220" height="30" rx="5"/><text class="ts" x="500" y="151" text-anchor="middle" dominant-baseline="central">Sequencing decisions</text></g>
  <g class="n-purple"><rect x="390" y="174" width="220" height="30" rx="5"/><text class="ts" x="500" y="189" text-anchor="middle" dominant-baseline="central">Risk/reward assessment</text></g>
  <g class="n-purple"><rect x="390" y="212" width="220" height="30" rx="5"/><text class="ts" x="500" y="227" text-anchor="middle" dominant-baseline="central">Creative path discovery</text></g>
  <g class="n-purple"><rect x="390" y="250" width="220" height="30" rx="5"/><text class="ts" x="500" y="265" text-anchor="middle" dominant-baseline="central">Tool command construction</text></g>
  <g class="n-purple"><rect x="390" y="288" width="220" height="30" rx="5"/><text class="ts" x="500" y="303" text-anchor="middle" dominant-baseline="central">Agent dispatch decisions</text></g>
  <g class="n-amber"><rect x="160" y="354" width="360" height="34" rx="7"/><text class="th" x="340" y="371" text-anchor="middle" dominant-baseline="central">Directed property graph (shared interface)</text></g>
  <line x1="180" y1="320" x2="260" y2="354" class="arr" marker-end="url(#arr)"/><line x1="500" y1="320" x2="420" y2="354" class="arr" marker-end="url(#arr)"/>
</svg>
