<svg viewBox="0 0 680 500" xmlns="http://www.w3.org/2000/svg">
<style>
  text{font-family:'Inter',-apple-system,BlinkMacSystemFont,sans-serif}
  .th{font-size:13px;font-weight:500;fill:#1e293b}
  .ts{font-size:11px;fill:#475569}
  .arr{stroke:#94a3b8;stroke-width:1}
  .n-purple rect{fill:#ede9fe;stroke:#8b5cf6;stroke-width:.5}
  .n-purple .th{fill:#5b21b6}.n-purple .ts{fill:#7c3aed}
  .n-blue rect{fill:#dbeafe;stroke:#3b82f6;stroke-width:.5}
  .n-blue .th{fill:#1e40af}.n-blue .ts{fill:#2563eb}
  .n-teal rect{fill:#d1fae5;stroke:#10b981;stroke-width:.5}
  .n-teal .th{fill:#065f46}.n-teal .ts{fill:#059669}
  .n-amber rect{fill:#fef3c7;stroke:#f59e0b;stroke-width:.5}
  .n-amber .th{fill:#92400e}.n-amber .ts{fill:#b45309}
  .n-coral rect{fill:#fff7ed;stroke:#f97316;stroke-width:.5}
  .n-coral .th{fill:#9a3412}.n-coral .ts{fill:#ea580c}
  .n-pink rect{fill:#fce7f3;stroke:#ec4899;stroke-width:.5}
  .n-pink .th{fill:#9d174d}.n-pink .ts{fill:#db2777}
  .n-gray rect{fill:#f1f5f9;stroke:#94a3b8;stroke-width:.5}
  .n-gray .th{fill:#334155}.n-gray .ts{fill:#475569}
  .n-red rect{fill:#fee2e2;stroke:#ef4444;stroke-width:.5}
  .n-red .th{fill:#991b1b}.n-red .ts{fill:#dc2626}
</style>
<rect width="100%" height="100%" fill="#ffffff" rx="6"/>
<defs><marker id="arr" viewBox="0 0 10 10" refX="8" refY="5" markerWidth="6" markerHeight="6" orient="auto-start-reverse"><path d="M2 1L8 5L2 9" fill="none" stroke="context-stroke" stroke-width="1.5" stroke-linecap="round" stroke-linejoin="round"/></marker></defs>

  <g class="n-coral"><rect x="180" y="10" width="320" height="48" rx="7"/><text class="th" x="340" y="28" text-anchor="middle" dominant-baseline="central">Finding ingested</text><text class="ts" x="340" y="44" text-anchor="middle" dominant-baseline="central">New node/edge enters graph</text></g>
  <line x1="340" y1="58" x2="340" y2="76" class="arr" marker-end="url(#arr)"/>
  <g class="n-amber"><rect x="120" y="76" width="440" height="48" rx="7"/><text class="th" x="340" y="94" text-anchor="middle" dominant-baseline="central">Rule matching (53 built-in rules)</text><text class="ts" x="340" y="110" text-anchor="middle" dominant-baseline="central">Node type + property + edge-triggered</text></g>
  <line x1="140" y1="124" x2="140" y2="148" class="arr" marker-end="url(#arr)"/>
  <line x1="290" y1="124" x2="290" y2="148" class="arr" marker-end="url(#arr)"/>
  <line x1="430" y1="124" x2="430" y2="148" class="arr" marker-end="url(#arr)"/>
  <line x1="560" y1="124" x2="560" y2="148" class="arr" marker-end="url(#arr)"/>
  <g class="n-teal"><rect x="80" y="148" width="110" height="40" rx="6"/><text class="ts" x="135" y="163" text-anchor="middle" dominant-baseline="central">AD + service</text><text class="ts" x="135" y="178" text-anchor="middle" dominant-baseline="central">13 rules</text></g>
  <g class="n-teal"><rect x="230" y="148" width="110" height="40" rx="6"/><text class="ts" x="285" y="163" text-anchor="middle" dominant-baseline="central">Linux privesc</text><text class="ts" x="285" y="178" text-anchor="middle" dominant-baseline="central">4 rules</text></g>
  <g class="n-teal"><rect x="380" y="148" width="110" height="40" rx="6"/><text class="ts" x="435" y="163" text-anchor="middle" dominant-baseline="central">Web + MSSQL</text><text class="ts" x="435" y="178" text-anchor="middle" dominant-baseline="central">2 rules</text></g>
  <g class="n-teal"><rect x="520" y="148" width="90" height="40" rx="6"/><text class="ts" x="565" y="163" text-anchor="middle" dominant-baseline="central">Cloud</text><text class="ts" x="565" y="178" text-anchor="middle" dominant-baseline="central">3 rules</text></g>
  <line x1="135" y1="188" x2="135" y2="206" stroke="#94a3b8" stroke-width=".5"/><line x1="285" y1="188" x2="285" y2="206" stroke="#94a3b8" stroke-width=".5"/>
  <line x1="435" y1="188" x2="435" y2="206" stroke="#94a3b8" stroke-width=".5"/><line x1="565" y1="188" x2="565" y2="206" stroke="#94a3b8" stroke-width=".5"/>
  <line x1="135" y1="206" x2="565" y2="206" stroke="#94a3b8" stroke-width=".5"/>
  <line x1="340" y1="206" x2="340" y2="226" class="arr" marker-end="url(#arr)"/>
  <g class="n-purple"><rect x="140" y="226" width="400" height="48" rx="7"/><text class="th" x="340" y="244" text-anchor="middle" dominant-baseline="central">Selector resolution (15 selectors)</text><text class="ts" x="340" y="260" text-anchor="middle" dominant-baseline="central">all_compromised, edge_peers, domain_creds, ...</text></g>
  <line x1="340" y1="274" x2="340" y2="294" class="arr" marker-end="url(#arr)"/>
  <g class="n-pink"><rect x="140" y="294" width="400" height="48" rx="7"/><text class="th" x="340" y="312" text-anchor="middle" dominant-baseline="central">Hypothesis edges created</text><text class="ts" x="340" y="328" text-anchor="middle" dominant-baseline="central">Confidence 0.3-0.7, inferred_by_rule tagged</text></g>
  <line x1="340" y1="342" x2="340" y2="362" class="arr" marker-end="url(#arr)"/>
  <g class="n-blue"><rect x="140" y="362" width="400" height="48" rx="7"/><text class="th" x="340" y="380" text-anchor="middle" dominant-baseline="central">Frontier items (type: inferred_edge)</text><text class="ts" x="340" y="396" text-anchor="middle" dominant-baseline="central">Surfaced via next_task()</text></g>
  <line x1="340" y1="410" x2="340" y2="430" class="arr" marker-end="url(#arr)"/>
  <g class="n-gray"><rect x="140" y="430" width="400" height="48" rx="7"/><text class="th" x="340" y="448" text-anchor="middle" dominant-baseline="central">LLM tests → confidence raised to 1.0</text><text class="ts" x="340" y="464" text-anchor="middle" dominant-baseline="central">Or discarded on failure</text></g>
</svg>
