<svg viewBox="0 0 680 420" xmlns="http://www.w3.org/2000/svg">
<style>
  text{font-family:'Inter',-apple-system,BlinkMacSystemFont,sans-serif}
  .th{font-size:13px;font-weight:500;fill:#e0e0e0}
  .ts{font-size:11px;fill:#9ca3af}
  .arr{stroke:#6b7280;stroke-width:1}
  .n-purple rect{fill:#26215C;stroke:#534AB7;stroke-width:.5}
  .n-purple .th{fill:#CCFFCC}.n-purple .ts{fill:#AFA9EC}
  .n-blue rect{fill:#0C3A6E;stroke:#378ADD;stroke-width:.5}
  .n-blue .th{fill:#B5D4F4}.n-blue .ts{fill:#85B7EB}
  .n-teal rect{fill:#053B30;stroke:#1D9E75;stroke-width:.5}
  .n-teal .th{fill:#9FE1CB}.n-teal .ts{fill:#5DCAA5}
  .n-amber rect{fill:#3A2800;stroke:#BA7517;stroke-width:.5}
  .n-amber .th{fill:#FAC775}.n-amber .ts{fill:#EF9F27}
  .n-coral rect{fill:#3E1508;stroke:#D85A30;stroke-width:.5}
  .n-coral .th{fill:#F5C4B3}.n-coral .ts{fill:#F0997B}
  .n-pink rect{fill:#3E1028;stroke:#D4537E;stroke-width:.5}
  .n-pink .th{fill:#F4C0D1}.n-pink .ts{fill:#ED93B1}
  .n-gray rect{fill:#1e1e1c;stroke:#5F5E5A;stroke-width:.5}
  .n-gray .th{fill:#D3D1C7}.n-gray .ts{fill:#B4B2A9}
  .n-red rect{fill:#3A0F0F;stroke:#A32D2D;stroke-width:.5}
  .n-red .th{fill:#F7C1C1}.n-red .ts{fill:#F09595}
</style>
<rect width="100%" height="100%" fill="transparent" rx="6"/>
<defs><marker id="arr" viewBox="0 0 10 10" refX="8" refY="5" markerWidth="6" markerHeight="6" orient="auto-start-reverse"><path d="M2 1L8 5L2 9" fill="none" stroke="context-stroke" stroke-width="1.5" stroke-linecap="round" stroke-linejoin="round"/></marker></defs>

  <g class="n-purple"><rect x="60" y="10" width="250" height="48" rx="7"/><text class="th" x="185" y="28" text-anchor="middle" dominant-baseline="central">stdio transport</text><text class="ts" x="185" y="44" text-anchor="middle" dominant-baseline="central">Claude Code default</text></g>
  <g class="n-blue"><rect x="370" y="10" width="250" height="48" rx="7"/><text class="th" x="495" y="28" text-anchor="middle" dominant-baseline="central">HTTP/SSE transport</text><text class="ts" x="495" y="44" text-anchor="middle" dominant-baseline="central">Multi-client, remote</text></g>
  <line x1="185" y1="58" x2="185" y2="74" stroke="#6b7280" stroke-width=".5"/><line x1="495" y1="58" x2="495" y2="74" stroke="#6b7280" stroke-width=".5"/>
  <line x1="185" y1="74" x2="495" y2="74" stroke="#6b7280" stroke-width=".5"/><line x1="340" y1="74" x2="340" y2="90" class="arr" marker-end="url(#arr)"/>
  <g class="n-amber"><rect x="140" y="90" width="400" height="40" rx="7"/><text class="th" x="340" y="110" text-anchor="middle" dominant-baseline="central">app.ts (transport-neutral, 39 tools)</text></g>
  <line x1="340" y1="130" x2="340" y2="152" class="arr" marker-end="url(#arr)"/>
  <text class="th" x="340" y="166" text-anchor="middle" dominant-baseline="central">Session manager</text>
  <g class="n-teal"><rect x="44" y="180" width="180" height="48" rx="7"/><text class="th" x="134" y="198" text-anchor="middle" dominant-baseline="central">LocalPty adapter</text><text class="ts" x="134" y="214" text-anchor="middle" dominant-baseline="central">node-pty, full TTY</text></g>
  <g class="n-teal"><rect x="250" y="180" width="180" height="48" rx="7"/><text class="th" x="340" y="198" text-anchor="middle" dominant-baseline="central">SSH adapter</text><text class="ts" x="340" y="214" text-anchor="middle" dominant-baseline="central">Key/password auth</text></g>
  <g class="n-teal"><rect x="456" y="180" width="180" height="48" rx="7"/><text class="th" x="546" y="198" text-anchor="middle" dominant-baseline="central">Socket adapter</text><text class="ts" x="546" y="214" text-anchor="middle" dominant-baseline="central">Reverse shells</text></g>
  <line x1="134" y1="228" x2="134" y2="250" stroke="#6b7280" stroke-width=".5"/><line x1="340" y1="228" x2="340" y2="250" stroke="#6b7280" stroke-width=".5"/><line x1="546" y1="228" x2="546" y2="250" stroke="#6b7280" stroke-width=".5"/>
  <line x1="134" y1="250" x2="546" y2="250" stroke="#6b7280" stroke-width=".5"/><line x1="340" y1="250" x2="340" y2="268" class="arr" marker-end="url(#arr)"/>
  <g class="n-coral"><rect x="140" y="268" width="400" height="48" rx="7"/><text class="th" x="340" y="286" text-anchor="middle" dominant-baseline="central">128KB ring buffer per session</text><text class="ts" x="340" y="302" text-anchor="middle" dominant-baseline="central">Cursor-based, monotonic positions</text></g>
  <line x1="340" y1="316" x2="340" y2="338" class="arr" marker-end="url(#arr)"/>
  <g class="n-gray"><rect x="100" y="338" width="90" height="32" rx="6"/><text class="ts" x="145" y="354" text-anchor="middle" dominant-baseline="central">pending</text></g>
  <line x1="190" y1="354" x2="240" y2="354" class="arr" marker-end="url(#arr)"/>
  <g class="n-teal"><rect x="240" y="338" width="110" height="32" rx="6"/><text class="ts" x="295" y="354" text-anchor="middle" dominant-baseline="central">connected</text></g>
  <line x1="350" y1="354" x2="406" y2="354" class="arr" marker-end="url(#arr)"/>
  <g class="n-gray"><rect x="406" y="338" width="80" height="32" rx="6"/><text class="ts" x="446" y="354" text-anchor="middle" dominant-baseline="central">closed</text></g>
  <line x1="295" y1="370" x2="295" y2="390" class="arr" marker-end="url(#arr)"/>
  <g class="n-red"><rect x="258" y="390" width="74" height="26" rx="5"/><text class="ts" x="295" y="403" text-anchor="middle" dominant-baseline="central">error</text></g>
  <text class="ts" x="530" y="354" text-anchor="start">TTY: none → dumb → partial → full</text>
</svg>
