<svg viewBox="0 0 720 620" xmlns="http://www.w3.org/2000/svg">
<style>
  text{font-family:'Inter',-apple-system,BlinkMacSystemFont,sans-serif}
  .th{font-size:13px;font-weight:500;fill:#e0e0e0}
  .ts{font-size:11px;fill:#9ca3af}
  .tx{font-size:10px;fill:#7a8290}
  .arr{stroke:#6b7280;stroke-width:1}
  .n-purple rect{fill:#26215C;stroke:#534AB7;stroke-width:.5}
  .n-purple .th{fill:#CCFFCC}.n-purple .ts{fill:#AFA9EC}
  .n-blue rect{fill:#0C3A6E;stroke:#378ADD;stroke-width:.5}
  .n-blue .th{fill:#B5D4F4}.n-blue .ts{fill:#85B7EB}
  .n-teal rect{fill:#053B30;stroke:#1D9E75;stroke-width:.5}
  .n-teal .th{fill:#9FE1CB}.n-teal .ts{fill:#5DCAA5}
  .n-amber rect{fill:#3A2800;stroke:#BA7517;stroke-width:.5}
  .n-amber .th{fill:#FAC775}.n-amber .ts{fill:#EF9F27}
  .n-coral rect{fill:#3E1508;stroke:#D85A30;stroke-width:.5}
  .n-coral .th{fill:#F5C4B3}.n-coral .ts{fill:#F0997B}
  .n-pink rect{fill:#3E1028;stroke:#D4537E;stroke-width:.5}
  .n-pink .th{fill:#F4C0D1}.n-pink .ts{fill:#ED93B1}
  .n-gray rect{fill:#1e1e1c;stroke:#5F5E5A;stroke-width:.5}
  .n-gray .th{fill:#D3D1C7}.n-gray .ts{fill:#B4B2A9}
  .n-emerald rect{fill:#03241B;stroke:#0E9468;stroke-width:.5}
  .n-emerald .th{fill:#A8EBD0}.n-emerald .ts{fill:#5DCAA5}.n-emerald .tx{fill:#3FA67E}
  .n-violet rect{fill:#1A1A36;stroke:#4F46E5;stroke-width:.5}
  .n-violet .th{fill:#C7D2FE}.n-violet .ts{fill:#A5B4FC}
</style>
<rect width="100%" height="100%" fill="transparent" rx="6"/>
<defs><marker id="arr" viewBox="0 0 10 10" refX="8" refY="5" markerWidth="6" markerHeight="6" orient="auto-start-reverse"><path d="M2 1L8 5L2 9" fill="none" stroke="context-stroke" stroke-width="1.5" stroke-linecap="round" stroke-linejoin="round"/></marker></defs>

  <!-- LLM operator -->
  <g class="n-purple"><rect x="220" y="20" width="280" height="50" rx="8"/><text class="th" x="360" y="40" text-anchor="middle" dominant-baseline="central">LLM operator (Claude / Opus)</text><text class="ts" x="360" y="56" text-anchor="middle" dominant-baseline="central">Primary session + sub-agents</text></g>
  <line x1="310" y1="70" x2="310" y2="110" class="arr" marker-end="url(#arr)"/><line x1="410" y1="110" x2="410" y2="70" class="arr" marker-end="url(#arr)"/>
  <text class="ts" x="272" y="94" text-anchor="end">stdio / Streamable HTTP</text>

  <!-- MCP orchestrator container -->
  <g class="n-teal"><rect x="40" y="110" width="640" height="430" rx="14"/><text class="th" x="360" y="134" text-anchor="middle" dominant-baseline="central">MCP orchestrator server</text></g>

  <!-- Tools row -->
  <g class="n-blue"><rect x="70" y="150" width="580" height="36" rx="7"/><text class="th" x="360" y="168" text-anchor="middle" dominant-baseline="central">MCP tools (generated canonical registry)</text></g>

  <!-- Core engines -->
  <g class="n-amber"><rect x="70" y="200" width="180" height="50" rx="7"/><text class="th" x="160" y="218" text-anchor="middle" dominant-baseline="central">Graph engine</text><text class="ts" x="160" y="234" text-anchor="middle" dominant-baseline="central">graphology</text></g>
  <g class="n-coral"><rect x="270" y="200" width="180" height="50" rx="7"/><text class="th" x="360" y="218" text-anchor="middle" dominant-baseline="central">Inference engine</text><text class="ts" x="360" y="234" text-anchor="middle" dominant-baseline="central">Built-in rule registry</text></g>
  <g class="n-pink"><rect x="470" y="200" width="180" height="50" rx="7"/><text class="th" x="560" y="218" text-anchor="middle" dominant-baseline="central">Frontier + leases</text><text class="ts" x="560" y="234" text-anchor="middle" dominant-baseline="central">Next actions, TTL claims</text></g>
  <line x1="250" y1="225" x2="268" y2="225" class="arr" marker-end="url(#arr)"/><line x1="450" y1="225" x2="468" y2="225" class="arr" marker-end="url(#arr)"/>

  <!-- EngineContext bar -->
  <g class="n-gray"><rect x="70" y="266" width="580" height="36" rx="7"/><text class="th" x="360" y="284" text-anchor="middle" dominant-baseline="central">Application commands → EngineTransaction V2 → shared applier</text></g>

  <!-- Core services -->
  <g class="n-teal"><rect x="70" y="318" width="138" height="36" rx="6"/><text class="ts" x="139" y="336" text-anchor="middle" dominant-baseline="central">Path analyzer</text></g>
  <g class="n-teal"><rect x="218" y="318" width="138" height="36" rx="6"/><text class="ts" x="287" y="336" text-anchor="middle" dominant-baseline="central">Identity resolution</text></g>
  <g class="n-teal"><rect x="366" y="318" width="138" height="36" rx="6"/><text class="ts" x="435" y="336" text-anchor="middle" dominant-baseline="central">State persistence</text></g>
  <g class="n-teal"><rect x="514" y="318" width="138" height="36" rx="6"/><text class="ts" x="583" y="336" text-anchor="middle" dominant-baseline="central">Parser registry</text></g>

  <!-- Foundations row -->
  <text class="tx" x="70" y="378" text-anchor="start">Durability for every engagement; deterministic audit when nonce is configured</text>
  <g class="n-emerald"><rect x="70" y="384" width="92" height="44" rx="6"/><text class="ts" x="116" y="400" text-anchor="middle" dominant-baseline="central">Hash chain</text><text class="tx" x="116" y="414" text-anchor="middle" dominant-baseline="central">+ checkpoints</text></g>
  <g class="n-emerald"><rect x="170" y="384" width="92" height="44" rx="6"/><text class="ts" x="216" y="400" text-anchor="middle" dominant-baseline="central">WAL journal</text><text class="tx" x="216" y="414" text-anchor="middle" dominant-baseline="central">complete tx replay</text></g>
  <g class="n-emerald"><rect x="270" y="384" width="92" height="44" rx="6"/><text class="ts" x="316" y="400" text-anchor="middle" dominant-baseline="central">Evidence store</text><text class="tx" x="316" y="414" text-anchor="middle" dominant-baseline="central">sha256-keyed</text></g>
  <g class="n-emerald"><rect x="370" y="384" width="92" height="44" rx="6"/><text class="ts" x="416" y="400" text-anchor="middle" dominant-baseline="central">Det. IDs</text><text class="tx" x="416" y="414" text-anchor="middle" dominant-baseline="central">act_/evt_ sha256</text></g>
  <g class="n-emerald"><rect x="470" y="384" width="92" height="44" rx="6"/><text class="ts" x="516" y="400" text-anchor="middle" dominant-baseline="central">Watchdog</text><text class="tx" x="516" y="414" text-anchor="middle" dominant-baseline="central">heartbeat reaper</text></g>
  <g class="n-emerald"><rect x="570" y="384" width="82" height="44" rx="6"/><text class="ts" x="611" y="400" text-anchor="middle" dominant-baseline="central">Golden</text><text class="tx" x="611" y="414" text-anchor="middle" dominant-baseline="central">replay tape</text></g>

  <!-- Visibility (derived) row -->
  <text class="tx" x="70" y="450" text-anchor="start">Visibility (derived views over the activity log)</text>
  <g class="n-violet"><rect x="70" y="456" width="186" height="40" rx="6"/><text class="ts" x="163" y="476" text-anchor="middle" dominant-baseline="central">Decision log</text></g>
  <g class="n-violet"><rect x="266" y="456" width="186" height="40" rx="6"/><text class="ts" x="359" y="476" text-anchor="middle" dominant-baseline="central">Timeline (what was true at T)</text></g>
  <g class="n-violet"><rect x="462" y="456" width="190" height="40" rx="6"/><text class="ts" x="557" y="476" text-anchor="middle" dominant-baseline="central">explain_action</text></g>

  <!-- Persistence to disk -->
  <g class="n-gray"><rect x="220" y="555" width="120" height="32" rx="6"/><text class="ts" x="280" y="571" text-anchor="middle" dominant-baseline="central">state.json</text></g>
  <g class="n-gray"><rect x="380" y="555" width="120" height="32" rx="6"/><text class="ts" x="440" y="571" text-anchor="middle" dominant-baseline="central">journal.jsonl</text></g>
  <line x1="280" y1="540" x2="280" y2="555" class="arr" marker-end="url(#arr)"/>
  <line x1="440" y1="540" x2="440" y2="555" class="arr" marker-end="url(#arr)"/>

</svg>
